<svg xmlns="http://www.w3.org/2000/svg" version="1.1" xmlns:xlink="http://www.w3.org/1999/xlink" xmlns:svgjs="http://svgjs.dev/svgjs" width="2000" height="1500" viewBox="0 0 2000 1500"><rect width="2000" height="1500" fill="#ffffff"></rect><g transform="matrix(0.75,0,0,0.75,249.090909090909,614.2660932580096)"><svg viewBox="0 0 396 72" data-background-color="#ffffff" preserveAspectRatio="xMidYMid meet" height="363" width="2000" xmlns="http://www.w3.org/2000/svg" xmlns:xlink="http://www.w3.org/1999/xlink"><g id="tight-bounds" transform="matrix(1,0,0,1,0.24000000000003752,-0.10342962195295513)"><svg viewBox="0 0 395.5199999999999 72.20685924390591" height="72.20685924390591" width="395.5199999999999"><g><svg viewBox="0 0 434.2661073455629 79.280419921875" height="72.20685924390591" width="395.5199999999999"><g><svg viewBox="0 0 434.2661073455629 79.280419921875" height="79.280419921875" width="434.2661073455629"><g id="textblocktransform"><svg viewBox="0 0 434.2661073455629 79.280419921875" height="79.280419921875" width="434.2661073455629" id="textblock"><g><svg viewBox="0 0 434.2661073455629 79.280419921875" height="79.280419921875" width="434.2661073455629"><g><svg><g></g><g></g></svg></g><g><svg><g><svg></svg></g><g></g></svg></g><g id="text-0"><svg viewBox="0 0 434.2661073455629 79.280419921875" height="79.280419921875" width="434.2661073455629"><g transform="matrix(1,0,0,1,0,0)"><svg width="312.49995117187495" viewBox="0.78 -39.79 193.13 48.989999999999995" height="79.280419921875" data-palette-color="#616561"><path d="M13.28-8.59L17.92-8.59 17.92 0 0.78 0 0.78-8.59 4.64-8.59 11.33-30.25 6.23-30.25 6.23-38.84 30.42-38.84 39.09-8.59 42.92-8.59 42.92 0 21.07 0 21.07-8.59 24.24-8.59 23.19-12.74 14.38-12.74 13.28-8.59ZM15.63-18.65L22.02-18.65 19.19-30.54 15.63-18.65ZM55.03 0.44L55.03 0.44Q51.49 0.44 48.9-1.44L48.9-1.44Q46.34-3.32 45-6.48 43.67-9.64 43.67-13.45L43.67-13.45Q43.67-16.89 45.04-19.97L45.04-19.97Q46.41-23 48.91-24.83 51.41-26.66 54.83-26.66L54.83-26.66Q57.32-26.66 59.1-25.85 60.89-25.05 62.42-23.46L62.42-23.46 62.42-29.86 58.52-29.86 58.52-36.5 74.17-38.11 74.17-7.35 77.27-7.35 77.27 0 62.23 0 62.23-3.15Q61.03-1.54 59.18-0.57 57.32 0.39 55.03 0.44ZM58.93-6.69L58.93-6.69Q60.08-6.69 61.01-7.24 61.94-7.79 62.42-8.54L62.42-8.54 62.42-17.8Q61.86-18.46 60.92-18.98 59.98-19.51 58.93-19.51L58.93-19.51Q57.03-19.51 55.83-17.96 54.64-16.41 54.64-13.45L54.64-13.45Q54.64-10.45 55.73-8.57 56.83-6.69 58.93-6.69ZM89.99-28.71L89.99-28.71Q86.93-28.71 84.96-30.15 82.98-31.59 82.98-34.3L82.98-34.3Q82.98-37.01 84.96-38.4 86.93-39.79 90.03-39.79L90.03-39.79Q93.13-39.79 95.08-38.43 97.02-37.06 97.02-34.3L97.02-34.3Q97.02-31.59 95.03-30.15 93.04-28.71 89.99-28.71ZM95.82-7.35L98.97-7.35 98.97 0 80.98 0 80.98-7.35 84.13-7.35 84.13-18.6 80.98-18.6 80.98-24.61 95.82-26.15 95.82-7.35ZM114.64 0.44L114.64 0.44Q105.24 0.44 105.24-9.35L105.24-9.35 105.24-18.99 101.34-18.99 101.34-26.15 105.24-26.15 105.24-31.74 116.94-34.35 116.94-26.15 121.62-26.15 121.62-18.99 116.94-18.99 116.94-10.21Q116.94-9.11 117.77-8.37 118.6-7.64 119.84-7.64L119.84-7.64Q120.74-7.64 121.62-7.79L121.62-7.79 121.62-1Q118.4 0.44 114.64 0.44ZM146.72 1.49L150.48 1.49 150.48 9.2 133.58 9.2 133.58 1.49 138.54 1.49 139.88-0.76 128.48-18.6 125.38-18.6 125.38-26.15 143.69-26.15 143.69-18.6 141.27-18.6 145.33-11.11 149.04-18.6 146.38-18.6 146.38-26.15 160.02-26.15 160.02-18.6 157.39-18.6 146.72 1.49ZM172.47 0.44L172.47 0.44Q169.98 0.44 167.96-0.54L167.96-0.54Q165.91-1.49 164.68-3.3 163.46-5.1 163.46-7.5L163.46-7.5Q163.46-10.08 164.9-11.89L164.9-11.89Q166.34-13.65 168.68-14.53 171.01-15.41 173.72-15.41L173.72-15.41Q176.92-15.41 179.87-14.45L179.87-14.45 179.87-15.55Q179.87-17.5 178.22-18.53 176.57-19.56 173.77-19.56L173.77-19.56Q172.57-19.56 171.08-19.26 169.59-18.97 168.18-18.46 166.76-17.94 165.71-17.31L165.71-17.31 165-17.6 165-24.71Q167.96-25.76 171.03-26.21 174.11-26.66 176.77-26.66L176.77-26.66Q191.61-26.66 191.61-18.31L191.61-18.31 191.61-7.35 193.91-7.35 193.91 0 181.41 0 180.31-4Q179.26-1.95 177.04-0.76 174.82 0.44 172.47 0.44ZM177.06-5.81L177.06-5.81Q177.87-5.81 178.71-6.08 179.55-6.35 179.87-6.64L179.87-6.64 179.87-10.74Q179.5-10.79 178.7-11.04L178.7-11.04Q177.87-11.25 177.26-11.25L177.26-11.25Q175.96-11.25 175.2-10.45 174.43-9.64 174.43-8.3L174.43-8.3Q174.43-7.3 175.15-6.56 175.87-5.81 177.06-5.81Z" opacity="1" transform="matrix(1,0,0,1,0,0)" fill="#616561" class="wordmark-text-0" data-fill-palette-color="primary"></path></svg></g><g><svg xmlns:svg="http://www.w3.org/2000/svg" xmlns:inkscape="http://www.inkscape.org/namespaces/inkscape" xmlns:dc="http://purl.org/dc/elements/1.1/" xmlns:cc="http://creativecommons.org/ns#" xmlns:sodipodi="http://sodipodi.sourceforge.net/DTD/sodipodi-0.dtd" xmlns:rdf="http://www.w3.org/1999/02/22-rdf-syntax-ns#" xmlns="http://www.w3.org/2000/svg" xmlns:xlink="http://www.w3.org/1999/xlink" version="1.1" x="331.21757812499993" y="0" viewBox="28.482 84.13 482.53700000000003 371.24" enable-background="new 0 0 539.5 539.5" xml:space="preserve" height="79.280419921875" width="103.04852922056297" class="icon-dxe-0" data-fill-palette-color="accent" id="dxe-0"><g fill="#e3f168" data-fill-palette-color="accent"><path d="M464.129 298.393L438.486 251.505 412.847 298.393 365.956 324.036 412.847 349.679 438.486 396.568 464.129 349.679 511.019 324.036zM453.076 338.625L438.487 365.303 423.9 338.625 397.219 324.035 423.9 309.445 438.487 282.768 453.076 309.445 479.756 324.035z" fill="#e3f168" data-fill-palette-color="accent"></path><path d="M351.273 129.436L331.83 93.88 312.389 129.436 276.834 148.88 312.389 168.323 331.83 203.879 351.273 168.323 386.83 148.88zM340.221 157.271L331.83 172.614 323.441 157.271 308.096 148.88 323.441 140.488 331.83 125.145 340.221 140.488 355.566 148.88z" fill="#e3f168" data-fill-palette-color="accent"></path><polygon points="417.3,208.245 438.248,208.244 438.248,229.192 453.248,229.192 453.248,208.242 474.198,208.241 474.197,193.241    453.248,193.242 453.248,172.294 438.248,172.294 438.248,193.244 417.299,193.245  " fill="#e3f168" data-fill-palette-color="accent"></polygon><polygon points="192.008,148.878 207.008,148.878 207.008,124.005 231.879,124.005 231.879,109.005 207.008,109.005 207.008,84.13    192.008,84.13 192.008,109.005 167.133,109.005 167.133,124.005 192.008,124.005  " fill="#e3f168" data-fill-palette-color="accent"></polygon><path d="M201.668 269.569C201.668 286.228 215.221 299.781 231.879 299.781 248.539 299.781 262.092 286.228 262.092 269.569S248.539 239.356 231.879 239.356C215.221 239.356 201.668 252.91 201.668 269.569M247.092 269.569C247.092 277.957 240.268 284.781 231.879 284.781S216.668 277.957 216.668 269.569 223.491 254.356 231.879 254.356 247.092 261.181 247.092 269.569" fill="#e3f168" data-fill-palette-color="accent"></path><path d="M256.802 369.19C218.834 369.19 183.14 354.405 156.294 327.558 113.905 285.169 102.663 220.304 128.321 166.15L137.315 147.168 118.332 156.162C102.071 163.866 87.328 174.269 74.514 187.083 44.83 216.766 28.482 256.231 28.482 298.211 28.482 340.19 44.83 379.655 74.514 409.339S143.663 455.37 185.643 455.37C227.622 455.37 267.088 439.022 296.772 409.338 309.585 396.524 319.988 381.781 327.692 365.522L336.688 346.538 317.704 355.533C298.844 364.467 277.785 369.19 256.802 369.19M286.164 398.731C259.314 425.583 223.614 440.37 185.643 440.37 147.67 440.37 111.971 425.583 85.121 398.731 58.27 371.881 43.482 336.182 43.482 298.21S58.27 224.538 85.121 197.689A142.7 142.7 0 0 1 106.89 179.829C89.545 235.045 103.973 296.449 145.689 338.165 175.368 367.844 214.83 384.189 256.803 384.189 272.782 384.189 288.801 381.71 304.042 376.936A143 143 0 0 1 286.164 398.731" fill="#e3f168" data-fill-palette-color="accent"></path><path d="M82.482 298.211H67.482C67.482 304.938 68.048 311.682 69.166 318.255L83.954 315.741A105 105 0 0 1 82.482 298.211" fill="#e3f168" data-fill-palette-color="accent"></path><path d="M88.199 332.25L74.034 337.186C79.894 354.007 89.334 369.005 102.091 381.762 124.408 404.079 154.081 416.37 185.643 416.37V401.37C158.088 401.37 132.183 390.64 112.698 371.154 101.552 360.01 93.31 346.92 88.199 332.25" fill="#e3f168" data-fill-palette-color="accent"></path></g></svg></g></svg></g></svg></g></svg></g></svg></g></svg></g><defs></defs></svg><rect width="395.5199999999999" height="72.20685924390591" fill="none" stroke="none" visibility="hidden"></rect></g></svg></g></svg>